<svg width="1024" height="1024" viewBox="0 0 1024 1024" xmlns="http://www.w3.org/2000/svg">
  <defs>
    <linearGradient id="houseGradient" x1="0%" y1="0%" x2="100%" y2="100%">
      <stop offset="0%" style="stop-color:#2E7D32;stop-opacity:1" />
      <stop offset="100%" style="stop-color:#4CAF50;stop-opacity:1" />
    </linearGradient>
  </defs>
  
  <circle cx="512" cy="512" r="480" fill="#2E7D32" stroke="#4CAF50" stroke-width="64"/>
  
  <g transform="translate(128, 128) scale(0.75)">
    <rect x="200" y="300" width="400" height="300" fill="white" stroke="#2E7D32" stroke-width="8" rx="20"/>
    
    <polygon points="180,300 400,150 620,300" fill="#2E7D32" stroke="#1B5E20" stroke-width="8"/>
    
    <rect x="350" y="450" width="80" height="150" fill="#4CAF50" stroke="#2E7D32" stroke-width="4" rx="8"/>
    <circle cx="375" cy="525" r="6" fill="#2E7D32"/>
    
    <rect x="250" y="350" width="60" height="60" fill="#81C784" stroke="#2E7D32" stroke-width="3" rx="5"/>
    <rect x="330" y="350" width="60" height="60" fill="#81C784" stroke="#2E7D32" stroke-width="3" rx="5"/>
    <rect x="410" y="350" width="60" height="60" fill="#81C784" stroke="#2E7D32" stroke-width="3" rx="5"/>
    
    <line x1="280" y1="350" x2="280" y2="410" stroke="#2E7D32" stroke-width="2"/>
    <line x1="250" y1="380" x2="310" y2="380" stroke="#2E7D32" stroke-width="2"/>
    
    <line x1="360" y1="350" x2="360" y2="410" stroke="#2E7D32" stroke-width="2"/>
    <line x1="330" y1="380" x2="390" y2="380" stroke="#2E7D32" stroke-width="2"/>
    
    <line x1="440" y1="350" x2="440" y2="410" stroke="#2E7D32" stroke-width="2"/>
    <line x1="410" y1="380" x2="470" y2="380" stroke="#2E7D32" stroke-width="2"/>
  </g>
</svg>